<svg xmlns="http://www.w3.org/2000/svg" xmlns:xlink="http://www.w3.org/1999/xlink"
  style="display:none">
  <!-- Símbolos existentes del usuario -->
  <symbol id="react" viewBox="0 0 569 512">
    <g fill="none" fill-rule="evenodd">
      <g transform="translate(-227, -256)" fill="#58C4DC" fill-rule="nonzero">
        <g transform="translate(227, 256)">
          <path
            d="M285.5,201 C255.400481,201 231,225.400481 231,255.5 C231,285.599519 255.400481,310 285.5,310 C315.599519,310 340,285.599519 340,255.5 C340,225.400481 315.599519,201 285.5,201"
            id="Path"></path>
          <path
            d="M568.959856,255.99437 C568.959856,213.207656 529.337802,175.68144 466.251623,150.985214 C467.094645,145.423543 467.85738,139.922107 468.399323,134.521063 C474.621631,73.0415145 459.808523,28.6686204 426.709856,9.5541429 C389.677085,-11.8291748 337.36955,3.69129898 284.479928,46.0162134 C231.590306,3.69129898 179.282771,-11.8291748 142.25,9.5541429 C109.151333,28.6686204 94.3382249,73.0415145 100.560533,134.521063 C101.102476,139.922107 101.845139,145.443621 102.708233,151.02537 C97.4493791,153.033193 92.2908847,155.161486 87.3331099,157.39017 C31.0111824,182.708821 0,217.765415 0,255.99437 C0,298.781084 39.6220545,336.307301 102.708233,361.003527 C101.845139,366.565197 101.102476,372.066633 100.560533,377.467678 C94.3382249,438.947226 109.151333,483.32012 142.25,502.434597 C153.629683,508.887578 166.52439,512.186771 179.603923,511.991836 C210.956328,511.991836 247.567589,495.487529 284.479928,465.972527 C321.372196,495.487529 358.003528,511.991836 389.396077,511.991836 C402.475265,512.183856 415.36922,508.884856 426.75,502.434597 C459.848667,483.32012 474.661775,438.947226 468.439467,377.467678 C467.897524,372.066633 467.134789,366.565197 466.291767,361.003527 C529.377946,336.347457 569,298.761006 569,255.99437 M389.155214,27.1025182 C397.565154,26.899606 405.877839,28.9368502 413.241569,33.0055186 C436.223966,46.2772304 446.540955,82.2775015 441.522965,131.770345 C441.181741,135.143488 440.780302,138.556788 440.298575,141.990165 C414.066922,134.08804 387.205771,128.452154 360.010724,125.144528 C343.525021,103.224055 325.192524,82.7564475 305.214266,63.9661533 C336.586743,39.7116483 366.032313,27.1025182 389.135142,27.1025182 M378.356498,310.205598 C368.204912,327.830733 357.150626,344.919965 345.237759,361.405091 C325.045049,363.479997 304.758818,364.51205 284.459856,364.497299 C264.167589,364.51136 243.888075,363.479308 223.702025,361.405091 C211.820914,344.919381 200.80007,327.83006 190.683646,310.205598 C180.532593,292.629285 171.306974,274.534187 163.044553,255.99437 C171.306974,237.454554 180.532593,219.359455 190.683646,201.783142 C200.784121,184.229367 211.770999,167.201087 223.601665,150.764353 C243.824636,148.63809 264.145559,147.579168 284.479928,147.591877 C304.772146,147.579725 325.051559,148.611772 345.237759,150.68404 C357.109048,167.14607 368.136094,184.201112 378.27621,201.783142 C388.419418,219.363718 397.644825,237.458403 405.915303,255.99437 C397.644825,274.530337 388.419418,292.625022 378.27621,310.205598 M419.724813,290.127366 C426.09516,307.503536 431.324985,325.277083 435.380944,343.334682 C417.779633,348.823635 399.836793,353.149774 381.668372,356.285142 C388.573127,345.871232 395.263781,335.035679 401.740334,323.778483 C408.143291,312.655143 414.144807,301.431411 419.805101,290.207679 M246.363271,390.377981 C258.848032,391.140954 271.593728,391.582675 284.5,391.582675 C297.406272,391.582675 310.232256,391.140954 322.737089,390.377981 C310.880643,404.583418 298.10766,417.997563 284.5,430.534446 C270.921643,417.999548 258.18192,404.585125 246.363271,390.377981 Z M187.311556,356.244986 C169.137286,353.123646 151.187726,348.810918 133.578912,343.334682 C137.618549,325.305649 142.828222,307.559058 149.174827,290.207679 C154.754833,301.431411 160.736278,312.655143 167.239594,323.778483 C173.74291,334.901824 180.467017,345.864539 187.311556,356.285142 M149.174827,221.760984 C142.850954,204.473938 137.654787,186.794745 133.619056,168.834762 C151.18418,163.352378 169.085653,159.013101 187.211197,155.844146 C180.346585,166.224592 173.622478,176.986525 167.139234,188.210257 C160.65599,199.433989 154.734761,210.517173 149.074467,221.760984 M322.616657,121.590681 C310.131896,120.827708 297.3862,120.385987 284.379568,120.385987 C271.479987,120.385987 258.767744,120.787552 246.242839,121.590681 C258.061488,107.383537 270.801211,93.9691137 284.379568,81.4342157 C297.99241,93.9658277 310.765727,107.380324 322.616657,121.590681 Z M401.70019,188.210257 C395.196875,176.939676 388.472767,166.09743 381.527868,155.68352 C399.744224,158.819049 417.734224,163.151949 435.380944,168.654058 C431.331963,186.680673 426.122466,204.426664 419.785029,221.781062 C414.205023,210.55733 408.203506,199.333598 401.720262,188.230335 M127.517179,131.790423 C122.438973,82.3176579 132.816178,46.2973086 155.778503,33.0255968 C163.144699,28.9632474 171.455651,26.9264282 179.864858,27.1225964 C202.967687,27.1225964 232.413257,39.7317265 263.785734,63.9862316 C243.794133,82.7898734 225.448298,103.270812 208.949132,125.204763 C181.761691,128.528025 154.90355,134.14313 128.661281,141.990165 C128.199626,138.556788 127.778115,135.163566 127.456963,131.790423 M98.4529773,182.106474 C101.54406,180.767925 104.695358,179.429376 107.906872,178.090828 C114.220532,204.735668 122.781793,230.7969 133.498624,255.99437 C122.761529,281.241316 114.193296,307.357063 107.8868,334.058539 C56.7434387,313.076786 27.0971497,284.003505 27.0971497,255.99437 C27.0971497,229.450947 53.1907013,202.526037 98.4529773,182.106474 Z M155.778503,478.963143 C132.816178,465.691432 122.438973,429.671082 127.517179,380.198317 C127.838331,376.825174 128.259842,373.431953 128.721497,369.978497 C154.953686,377.878517 181.814655,383.514365 209.009348,386.824134 C225.500295,408.752719 243.832321,429.233234 263.805806,448.042665 C220.069,481.834331 180.105722,492.97775 155.838719,478.963143 M441.502893,380.198317 C446.520883,429.691161 436.203894,465.691432 413.221497,478.963143 C388.974566,493.017906 348.991216,481.834331 305.274481,448.042665 C325.241364,429.232737 343.566681,408.752215 360.050868,386.824134 C387.245915,383.516508 414.107066,377.880622 440.338719,369.978497 C440.820446,373.431953 441.221885,376.825174 441.563109,380.198317 M461.193488,334.018382 C454.869166,307.332523 446.294494,281.231049 435.561592,255.99437 C446.289797,230.744081 454.857778,204.629101 461.173416,177.930202 C512.216417,198.911955 541.942994,227.985236 541.942994,255.99437 C541.942994,284.003505 512.296705,313.076786 461.153344,334.058539"
            id="Shape"></path>
        </g>
      </g>
    </g>
  </symbol>

  <symbol id="node" viewBox="0 0 256 292">
    <defs>
      <linearGradient id="a" x1="68.188%" x2="27.823%" y1="17.487%" y2="89.755%">
        <stop offset="0%" stop-color="#41873F" />
        <stop offset="32.88%" stop-color="#418B3D" />
        <stop offset="63.52%" stop-color="#419637" />
        <stop offset="93.19%" stop-color="#3FA92D" />
        <stop offset="100%" stop-color="#3FAE2A" />
      </linearGradient>
      <linearGradient id="c" x1="43.277%" x2="159.245%" y1="55.169%" y2="-18.306%">
        <stop offset="13.76%" stop-color="#41873F" />
        <stop offset="40.32%" stop-color="#54A044" />
        <stop offset="71.36%" stop-color="#66B848" />
        <stop offset="90.81%" stop-color="#6CC04A" />
      </linearGradient>
      <linearGradient id="f" x1="-4.389%" x2="101.499%" y1="49.997%" y2="49.997%">
        <stop offset="9.192%" stop-color="#6CC04A" />
        <stop offset="28.64%" stop-color="#66B848" />
        <stop offset="59.68%" stop-color="#54A044" />
        <stop offset="86.24%" stop-color="#41873F" />
      </linearGradient>
      <path id="b"
        d="M134.923 1.832c-4.344-2.443-9.502-2.443-13.846 0L6.787 67.801C2.443 70.244 0 74.859 0 79.745v132.208c0 4.887 2.715 9.502 6.787 11.945l114.29 65.968c4.344 2.444 9.502 2.444 13.846 0l114.29-65.968c4.344-2.443 6.787-7.058 6.787-11.945V79.745c0-4.886-2.715-9.501-6.787-11.944L134.923 1.832Z" />
      <path id="e"
        d="M134.923 1.832c-4.344-2.443-9.502-2.443-13.846 0L6.787 67.801C2.443 70.244 0 74.859 0 79.745v132.208c0 4.887 2.715 9.502 6.787 11.945l114.29 65.968c4.344 2.444 9.502 2.444 13.846 0l114.29-65.968c4.344-2.443 6.787-7.058 6.787-11.945V79.745c0-4.886-2.715-9.501-6.787-11.944L134.923 1.832Z" />
    </defs>
    <path fill="url(#a)"
      d="M134.923 1.832c-4.344-2.443-9.502-2.443-13.846 0L6.787 67.801C2.443 70.244 0 74.859 0 79.745v132.208c0 4.887 2.715 9.502 6.787 11.945l114.29 65.968c4.344 2.444 9.502 2.444 13.846 0l114.29-65.968c4.344-2.443 6.787-7.058 6.787-11.945V79.745c0-4.886-2.715-9.501-6.787-11.944L134.923 1.832Z" />
    <mask id="d" fill="#fff">
      <use xlink:href="#b" />
    </mask>
    <path fill="url(#c)"
      d="M249.485 67.8 134.65 1.833c-1.086-.542-2.443-1.085-3.529-1.357L2.443 220.912c1.086 1.357 2.444 2.443 3.8 3.258l114.834 65.968c3.258 1.9 7.059 2.443 10.588 1.357L252.47 70.515c-.815-1.086-1.9-1.9-2.986-2.714Z"
      mask="url(#d)" />
    <mask id="g" fill="#fff">
      <use xlink:href="#e" />
    </mask>
    <path fill="url(#f)"
      d="M249.756 223.898c3.258-1.9 5.701-5.158 6.787-8.687L130.579.204c-3.258-.543-6.787-.272-9.773 1.628L6.786 67.53l122.979 224.238c1.628-.272 3.529-.815 5.158-1.63l114.833-66.239Z"
      mask="url(#g)" />
  </symbol>

  <symbol id="typescript" viewBox="0 0 256 256">
    <rect width="256" height="256" rx="20" fill="#3178C6" />
    <path
      d="M150.518 200.475v27.62c4.492 2.302 9.805 4.028 15.938 5.179 6.133 1.151 12.597 1.726 19.393 1.726 6.622 0 12.914-.633 18.874-1.899 5.96-1.266 11.187-3.352 15.678-6.257 4.492-2.906 8.048-6.704 10.669-11.394 2.62-4.689 3.93-10.486 3.93-17.391 0-5.006-.749-9.394-2.246-13.163a30.748 30.748 0 0 0-6.479-10.055c-2.821-2.935-6.205-5.567-10.149-7.898-3.945-2.33-8.394-4.531-13.347-6.602-3.628-1.497-6.881-2.949-9.761-4.359-2.879-1.41-5.327-2.848-7.342-4.316-2.016-1.467-3.571-3.021-4.665-4.661-1.094-1.64-1.641-3.495-1.641-5.567 0-1.899.489-3.61 1.468-5.135s2.362-2.834 4.147-3.927c1.785-1.094 3.973-1.942 6.565-2.547 2.591-.604 5.471-.906 8.638-.906 2.304 0 4.737.173 7.299.518 2.563.345 5.14.877 7.732 1.597a53.669 53.669 0 0 1 7.558 2.719 41.7 41.7 0 0 1 6.781 3.797v-25.807c-4.204-1.611-8.797-2.805-13.778-3.582-4.981-.777-10.697-1.165-17.147-1.165-6.565 0-12.784.705-18.658 2.115-5.874 1.409-11.043 3.61-15.506 6.602-4.463 2.993-7.99 6.805-10.582 11.437-2.591 4.632-3.887 10.17-3.887 16.615 0 8.228 2.375 15.248 7.127 21.06 4.751 5.811 11.963 10.731 21.638 14.759a291.458 291.458 0 0 1 10.625 4.575c3.283 1.496 6.119 3.049 8.509 4.66 2.39 1.611 4.276 3.366 5.658 5.265 1.382 1.899 2.073 4.057 2.073 6.474a9.901 9.901 0 0 1-1.296 4.963c-.863 1.524-2.174 2.848-3.93 3.97-1.756 1.122-3.945 1.999-6.565 2.632-2.62.633-5.687.95-9.2.95-5.989 0-11.92-1.05-17.794-3.151-5.875-2.1-11.317-5.25-16.327-9.451Zm-46.036-68.733H140V109H41v22.742h35.345V233h28.137V131.742Z"
      fill="#FFF" />
  </symbol>

  <symbol id="html" viewBox="0 0 452 520">
    <path fill="#e34f26" d="M41 460L0 0h451l-41 460-185 52" />
    <path fill="#ef652a" d="M226 472l149-41 35-394H226" />
    <path fill="#ecedee"
      d="M226 208h-75l-5-58h80V94H84l15 171h127zm0 147l-64-17-4-45h-56l7 89 117 32z" />
    <path fill="#fff" d="M226 265h69l-7 73-62 17v59l115-32 16-174H226zm0-171v56h136l5-56z" />
  </symbol>

  <symbol id="css" viewBox="0 0 1000 1000">
    <path fill="#639"
      d="M0 0h840a160 160 0 0 1 160 160v680a160 160 0 0 1-160 160H160A160 160 0 0 1 0 840V0Z" />
    <path fill="#fff"
      d="M816.54 919.9c-32.39 0-57.16-9.42-74.5-28.35-17.15-19.03-26.08-46.18-26.88-81.64h69.8c.4 31.36 11.42 47.08 33.08 47.08 11.04 0 18.86-3.5 23.37-10.42 4.41-6.9 6.72-17.93 6.72-33.05 0-12.02-3.01-22.04-8.83-29.95a73.2 73.2 0 0 0-29.48-21.14L783.95 750c-23.06-11.02-39.81-24.04-50.14-39.27-10.03-15.13-15.04-36.36-15.04-63.5 0-30.36 8.83-55 26.37-73.94 18.05-18.93 42.62-28.34 74-28.34 30.3 0 53.76 9.31 70.3 27.84 16.85 18.64 25.67 45.28 26.38 80.14h-67.19c.4-11.4-1.9-22.72-6.72-33.06-3.8-7.6-11.23-11.41-22.26-11.41-19.65 0-29.48 11.71-29.48 35.05 0 11.83 2.4 21.04 7.22 28.05A65.18 65.18 0 0 0 822.76 689l24.77 10.92c25.57 11.72 44.02 26.05 55.35 43.38 11.43 17.23 17.05 40.27 17.05 69.12 0 34.56-9.03 61.1-27.38 79.63-18.25 18.53-43.62 27.85-76 27.85Zm-225.42 0c-32.4 0-57.16-9.42-74.51-28.35-17.15-19.03-26.07-46.18-26.87-81.64h69.79c.4 31.36 11.43 47.08 33.1 47.08 11.02 0 18.84-3.5 23.25-10.42 4.52-6.9 6.72-17.93 6.72-33.05 0-12.02-2.9-22.04-8.72-29.95a73.2 73.2 0 0 0-29.48-21.14L558.53 750c-23.07-11.02-39.81-24.04-50.14-39.27-10.03-15.13-15.04-36.36-15.04-63.5 0-30.36 8.82-55 26.37-73.94 18.05-18.93 42.62-28.34 74-28.34 30.29 0 53.75 9.31 70.2 27.84 17.05 18.64 25.77 45.28 26.47 80.14h-67.18c.4-11.4-1.9-22.72-6.72-33.06-3.81-7.6-11.23-11.41-22.26-11.41-19.66 0-29.49 11.71-29.49 35.05 0 11.83 2.41 21.04 7.22 28.05A65.18 65.18 0 0 0 597.33 689l24.77 10.92c25.57 11.72 44.02 26.05 55.36 43.38 11.33 17.23 17.04 40.27 17.04 69.12 0 34.56-9.12 61.1-27.37 79.63-18.25 18.53-43.62 27.85-76.01 27.85Zm-234.75 0c-31.7 0-56.86-8.62-75.51-25.85-18.65-17.12-27.88-42.87-27.88-76.93V648.83c0-33.85 9.83-59.5 29.48-77.13 19.96-17.43 46.13-26.24 78.52-26.24 31.39 0 56.15 9.01 74.5 26.84 18.56 17.93 27.88 44.58 27.88 80.14v13.32h-73.9v-12.92c0-13.72-3.01-23.84-8.83-30.45a26.46 26.46 0 0 0-21.66-10.32c-12.03 0-20.55 4.1-25.37 12.42a79.04 79.04 0 0 0-6.72 36.66v146.26c0 30.55 10.74 46.08 32.1 46.38 10.02 0 17.54-3.61 22.76-10.82a51.74 51.74 0 0 0 7.72-30.46V801.6h73.9v11.42c0 23.74-4.61 43.57-13.94 59.4a88.8 88.8 0 0 1-38.2 35.66 121.46 121.46 0 0 1-54.85 11.82Z" />
  </symbol>

  <symbol id="instagram" viewBox="0 0 256 256">
    <path fill="#fff"
      d="M128 23.064c34.177 0 38.225.13 51.722.745 12.48.57 19.258 2.655 23.769 4.408 5.974 2.322 10.238 5.096 14.717 9.575 4.48 4.479 7.253 8.743 9.575 14.717 1.753 4.511 3.838 11.289 4.408 23.768.615 13.498.745 17.546.745 51.723 0 34.178-.13 38.226-.745 51.723-.57 12.48-2.655 19.257-4.408 23.768-2.322 5.974-5.096 10.239-9.575 14.718-4.479 4.479-8.743 7.253-14.717 9.574-4.511 1.753-11.289 3.839-23.769 4.408-13.495.616-17.543.746-51.722.746-34.18 0-38.228-.13-51.723-.746-12.48-.57-19.257-2.655-23.768-4.408-5.974-2.321-10.239-5.095-14.718-9.574-4.479-4.48-7.253-8.744-9.574-14.718-1.753-4.51-3.839-11.288-4.408-23.768-.616-13.497-.746-17.545-.746-51.723 0-34.177.13-38.225.746-51.722.57-12.48 2.655-19.258 4.408-23.769 2.321-5.974 5.095-10.238 9.574-14.717 4.48-4.48 8.744-7.253 14.718-9.575 4.51-1.753 11.289-3.838 23.768-4.408 13.497-.615 17.545-.745 51.723-.745M128 0C93.237 0 88.878.147 75.226.77c-13.625.622-22.93 2.786-31.071 5.95-8.418 3.271-15.556 7.648-22.672 14.764C14.367 28.6 9.991 35.738 6.72 44.155 3.555 52.297 1.392 61.602.77 75.226.147 88.878 0 93.237 0 128c0 34.763.147 39.122.77 52.774.622 13.625 2.785 22.93 5.95 31.071 3.27 8.417 7.647 15.556 14.763 22.672 7.116 7.116 14.254 11.492 22.672 14.763 8.142 3.165 17.446 5.328 31.07 5.95 13.653.623 18.012.77 52.775.77s39.122-.147 52.774-.77c13.624-.622 22.929-2.785 31.07-5.95 8.418-3.27 15.556-7.647 22.672-14.763 7.116-7.116 11.493-14.254 14.764-22.672 3.164-8.142 5.328-17.446 5.95-31.07.623-13.653.77-18.012.77-52.775s-.147-39.122-.77-52.774c-.622-13.624-2.786-22.929-5.95-31.07-3.271-8.418-7.648-15.556-14.764-22.672C227.4 14.368 220.262 9.99 211.845 6.72c-8.142-3.164-17.447-5.328-31.071-5.95C167.122.147 162.763 0 128 0Zm0 62.27C91.698 62.27 62.27 91.7 62.27 128c0 36.302 29.428 65.73 65.73 65.73 36.301 0 65.73-29.428 65.73-65.73 0-36.301-29.429-65.73-65.73-65.73Zm0 108.397c-23.564 0-42.667-19.103-42.667-42.667S104.436 85.333 128 85.333s42.667 19.103 42.667 42.667-19.103 42.667-42.667 42.667Zm83.686-110.994c0 8.484-6.876 15.36-15.36 15.36-8.483 0-15.36-6.876-15.36-15.36 0-8.483 6.877-15.36 15.36-15.36 8.484 0 15.36 6.877 15.36 15.36Z" />
  </symbol>

  <symbol id="x" viewBox="0 0 1200 1227">
    <path fill="#fff"
      d="M714.163 519.284 1160.89 0h-105.86L667.137 450.887 357.328 0H0l468.492 681.821L0 1226.37h105.866l409.625-476.152 327.181 476.152H1200L714.137 519.284h.026ZM569.165 687.828l-47.468-67.894-377.686-540.24h162.604l304.797 435.991 47.468 67.894 396.2 566.721H892.476L569.165 687.854v-.026Z" />
  </symbol>

  <symbol id="youtube" viewBox="0 0 256 180">
    <path
      d="M250.346 28.075A32.18 32.18 0 0 0 227.69 5.418C207.824 0 127.87 0 127.87 0S47.912.164 28.046 5.582A32.18 32.18 0 0 0 5.39 28.24c-6.009 35.298-8.34 89.084.165 122.97a32.18 32.18 0 0 0 22.656 22.657c19.866 5.418 99.822 5.418 99.822 5.418s79.955 0 99.82-5.418a32.18 32.18 0 0 0 22.657-22.657c6.338-35.348 8.291-89.1-.164-123.134Z"
      fill="red" />
    <path fill="#FFF" d="m102.421 128.06 66.328-38.418-66.328-38.418z" />
  </symbol>

  <symbol id="linkedin" viewBox="0 0 256 256">
    <path fill="currentColor"
      d="M218.123 218.127h-37.931v-59.403c0-14.165-.253-32.4-19.728-32.4-19.756 0-22.779 15.434-22.779 31.369v60.43h-37.93V95.967h36.413v16.694h.51a39.907 39.907 0 0 1 35.928-19.733c38.445 0 45.533 25.288 45.533 58.186l-.016 67.013ZM56.955 79.27c-12.157.002-22.014-9.852-22.016-22.009-.002-12.157 9.851-22.014 22.008-22.016 12.157-.003 22.014 9.851 22.016 22.008A22.013 22.013 0 0 1 56.955 79.27m18.966 138.858H37.95V95.967h37.97v122.16ZM237.033.018H18.89C8.58-.098.125 8.161-.001 18.471v219.053c.122 10.315 8.576 18.582 18.89 18.474h218.144c10.336.128 18.823-8.139 18.966-18.474V18.454c-.147-10.33-8.635-18.588-18.966-18.453" />
  </symbol>

  <symbol id="github" viewBox="0 0 1024 1024">
    <path fill-rule="evenodd" clip-rule="evenodd"
      d="M8 0C3.58 0 0 3.58 0 8C0 11.54 2.29 14.53 5.47 15.59C5.87 15.66 6.02 15.42 6.02 15.21C6.02 15.02 6.01 14.39 6.01 13.72C4 14.09 3.48 13.23 3.32 12.78C3.23 12.55 2.84 11.84 2.5 11.65C2.22 11.5 1.82 11.13 2.49 11.12C3.12 11.11 3.57 11.7 3.72 11.94C4.44 13.15 5.59 12.81 6.05 12.6C6.12 12.08 6.33 11.73 6.56 11.53C4.78 11.33 2.92 10.64 2.92 7.58C2.92 6.71 3.23 5.99 3.74 5.43C3.66 5.23 3.38 4.41 3.82 3.31C3.82 3.31 4.49 3.1 6.02 4.13C6.66 3.95 7.34 3.86 8.02 3.86C8.7 3.86 9.38 3.95 10.02 4.13C11.55 3.09 12.22 3.31 12.22 3.31C12.66 4.41 12.38 5.23 12.3 5.43C12.81 5.99 13.12 6.7 13.12 7.58C13.12 10.65 11.25 11.33 9.47 11.53C9.76 11.78 10.01 12.26 10.01 13.01C10.01 14.08 10 14.94 10 15.21C10 15.42 10.15 15.67 10.55 15.59C13.71 14.53 16 11.53 16 8C16 3.58 12.42 0 8 0Z"
      transform="scale(64)" fill="#fff" />
  </symbol>

  <symbol id="strava" width="512" height="512" style="enable-background:new 0 0 512 512">
    <path d="M226.172 26.001 90.149 288.345h80.141l55.882-104.309 55.433 104.309h79.511z"
      style="fill:#f50" />
    <path d="m361.116 288.345-39.441 79.241-40.07-79.241h-60.734l100.804 197.654 100.176-197.654z"
      style="fill:#ffaf8a" />
  </symbol>

  <symbol id="twitch" viewBox="0 0 2400 2800">
    <path fill="#fff" d="m2200 1300-400 400h-400l-350 350v-350H600V200h1600z" />
    <g fill="#9146ff">
      <path
        d="M500 0 0 500v1800h600v500l500-500h400l900-900V0H500zm1700 1300-400 400h-400l-350 350v-350H600V200h1600v1100z" />
      <path d="M1700 550h200v600h-200zm-550 0h200v600h-200z" />
    </g>
  </symbol>

  <symbol id="artstation" viewBox="0 0 24 24">
    <path fill="#fff"
      d="M0 17.723l2.027 3.505h.001a2.424 2.424 0 0 0 2.164 1.333h13.457l-2.792-4.838H0zm24 .025c0-.484-.143-.935-.388-1.314L15.728 2.728a2.424 2.424 0 0 0-2.142-1.289H9.419L21.598 22.54l1.92-3.325c.378-.637.482-.919.482-1.467zm-11.129-3.462L7.428 4.858l-5.444 9.428h10.887z" />
  </symbol>

  <symbol id="git" viewBox="0 0 24 24">
    <path fill="currentColor"
      d="M12 .297c-6.63 0-12 5.373-12 12 0 5.303 3.438 9.8 8.205 11.385.6.113.82-.258.82-.577 0-.285-.01-1.04-.015-2.04-3.338.724-4.042-1.61-4.042-1.61C4.422 18.07 3.633 17.7 3.633 17.7c-1.087-.744.084-.729.084-.729 1.205.084 1.838 1.236 1.838 1.236 1.07 1.835 2.809 1.305 3.495.998.108-.776.417-1.305.76-1.605-2.665-.3-5.466-1.332-5.466-5.93 0-1.31.465-2.38 1.235-3.22-.135-.303-.54-1.523.105-3.176 0 0 1.005-.322 3.3 1.23.96-.267 1.98-.399 3-.405 1.02.006 2.04.138 3 .405 2.28-1.552 3.285-1.23 3.285-1.23.645 1.653.24 2.873.12 3.176.765.84 1.23 1.91 1.23 3.22 0 4.61-2.805 5.625-5.475 5.92.42.36.81 1.096.81 2.22 0 1.606-.015 2.896-.015 3.286 0 .315.21.69.825.57C20.565 22.092 24 17.592 24 12.297c0-6.627-5.373-12-12-12" />
  </symbol>

  <!-- NUEVO: Tu Logo HG Minimalista -->
  <symbol id="hg" viewBox="0 0 200 200">
    <g fill="none" stroke="currentColor" stroke-width="5" stroke-linecap="round" stroke-linejoin="round">
      <path d="M60 60 V140" />
      <path d="M100 60 V140" />
      <path d="M60 100 H100" />
      <path d="M140 75 C140 60 120 55 100 60 C75 65 75 135 100 140 C125 145 140 130 140 110 H115" />
    </g>
  </symbol>

  <symbol id="gitbook" viewBox="0 0 24 24" fill="none" stroke="currentColor" stroke-width="2"
    stroke-linecap="round" stroke-linejoin="round">
    <path
      d="M12.513 1.097c-.645 0-1.233.34-2.407 1.017L3.675 5.82A7.233 7.233 0 0 0 0 12.063v.236a7.233 7.233 0 0 0 3.667 6.238L7.69 20.86c2.354 1.36 3.531 2.042 4.824 2.042 1.292.001 2.47-.678 4.825-2.038l4.251-2.453c1.177-.68 1.764-1.02 2.087-1.579.323-.56.324-1.24.323-2.6v-2.63a1.04 1.04 0 0 0-1.558-.903l-8.728 5.024c-.587.337-.88.507-1.201.507-.323 0-.616-.168-1.204-.506l-5.904-3.393c-.297-.171-.446-.256-.565-.271a.603.603 0 0 0-.634.368c-.045.111-.045.282-.043.625.002.252 0 .378.025.494.053.259.189.493.387.667.089.077.198.14.416.266l6.315 3.65c.589.34.884.51 1.207.51.324 0 .617-.17 1.206-.509l7.74-4.469c.202-.116.302-.172.377-.13.075.044.075.16.075.392v1.193c0 .34.001.51-.08.649-.08.14-.227.224-.522.394l-6.382 3.685c-1.178.68-1.767 1.02-2.413 1.02-.646 0-1.236-.34-2.412-1.022l-5.97-3.452-.043-.025a4.106 4.106 0 0 1-2.031-3.52V11.7c0-.801.427-1.541 1.12-1.944a1.979 1.979 0 0 1 1.982-.001l4.946 2.858c1.174.679 1.762 1.019 2.407 1.02.645 0 1.233-.34 2.41-1.017l7.482-4.306a1.091 1.091 0 0 0 0-1.891L14.92 2.11c-1.175-.675-1.762-1.013-2.406-1.013Z"
      fill="currentColor" />
  </symbol>


  <symbol id="react" viewBox="0 0 569 512">
    <g fill="none" fill-rule="evenodd">
      <g transform="translate(-227, -256)" fill="#58C4DC" fill-rule="nonzero">
        <g transform="translate(227, 256)">
          <path
            d="M285.5,201 C255.400481,201 231,225.400481 231,255.5 C231,285.599519 255.400481,310 285.5,310 C315.599519,310 340,285.599519 340,255.5 C340,225.400481 315.599519,201 285.5,201" />
          <path
            d="M568.959856,255.99437 C568.959856,213.207656 529.337802,175.68144 466.251623,150.985214 C467.094645,145.423543 467.85738,139.922107 468.399323,134.521063 C474.621631,73.0415145 459.808523,28.6686204 426.709856,9.5541429 C389.677085,-11.8291748 337.36955,3.69129898 284.479928,46.0162134 C231.590306,3.69129898 179.282771,-11.8291748 142.25,9.5541429 C109.151333,28.6686204 94.3382249,73.0415145 100.560533,134.521063 C101.102476,139.922107 101.845139,145.443621 102.708233,151.02537 C97.4493791,153.033193 92.2908847,155.161486 87.3331099,157.39017 C31.0111824,182.708821 0,217.765415 0,255.99437 C0,298.781084 39.6220545,336.307301 102.708233,361.003527 C101.845139,366.565197 101.102476,372.066633 100.560533,377.467678 C94.3382249,438.947226 109.151333,483.32012 142.25,502.434597 C153.629683,508.887578 166.52439,512.186771 179.603923,511.991836 C210.956328,511.991836 247.567589,495.487529 284.479928,465.972527 C321.372196,495.487529 358.003528,511.991836 389.396077,511.991836 C402.475265,512.183856 415.36922,508.884856 426.75,502.434597 C459.848667,483.32012 474.661775,438.947226 468.439467,377.467678 C467.897524,372.066633 467.134789,366.565197 466.291767,361.003527 C529.377946,336.347457 569,298.761006 569,255.99437 M389.155214,27.1025182 C397.565154,26.899606 405.877839,28.9368502 413.241569,33.0055186 C436.223966,46.2772304 446.540955,82.2775015 441.522965,131.770345 C441.181741,135.143488 440.780302,138.556788 440.298575,141.990165 C414.066922,134.08804 387.205771,128.452154 360.010724,125.144528 C343.525021,103.224055 325.192524,82.7564475 305.214266,63.9661533 C336.586743,39.7116483 366.032313,27.1025182 389.135142,27.1025182" />
        </g>
      </g>
    </g>
  </symbol>


  <symbol id="typescript" viewBox="0 0 256 256">
    <rect width="256" height="256" rx="20" fill="#3178C6" />
    <path
      d="M150.518 200.475v27.62c4.492 2.302 9.805 4.028 15.938 5.179 6.133 1.151 12.597 1.726 19.393 1.726 6.622 0 12.914-.633 18.874-1.899 5.96-1.266 11.187-3.352 15.678-6.257 4.492-2.906 8.048-6.704 10.669-11.394 2.62-4.689 3.93-10.486 3.93-17.391 0-5.006-.749-9.394-2.246-13.163a30.748 30.748 0 0 0-6.479-10.055c-2.821-2.935-6.205-5.567-10.149-7.898-3.945-2.33-8.394-4.531-13.347-6.602-3.628-1.497-6.881-2.949-9.761-4.359-2.879-1.41-5.327-2.848-7.342-4.316-2.016-1.467-3.571-3.021-4.665-4.661-1.094-1.64-1.641-3.495-1.641-5.567 0-1.899.489-3.61 1.468-5.135s2.362-2.834 4.147-3.927c1.785-1.094 3.973-1.942 6.565-2.547 2.591-.604 5.471-.906 8.638-.906 2.304 0 4.737.173 7.299.518 2.563.345 5.14.877 7.732 1.597a53.669 53.669 0 0 1 7.558 2.719 41.7 41.7 0 0 1 6.781 3.797v-25.807c-4.204-1.611-8.797-2.805-13.778-3.582-4.981-.777-10.697-1.165-17.147-1.165-6.565 0-12.784.705-18.658 2.115-5.874 1.409-11.043 3.61-15.506 6.602-4.463 2.993-7.99 6.805-10.582 11.437-2.591 4.632-3.887 10.17-3.887 16.615 0 8.228 2.375 15.248 7.127 21.06 4.751 5.811 11.963 10.731 21.638 14.759a291.458 291.458 0 0 1 10.625 4.575c3.283 1.496 6.119 3.049 8.509 4.66 2.39 1.611 4.276 3.366 5.658 5.265 1.382 1.899 2.073 4.057 2.073 6.474a9.901 9.901 0 0 1-1.296 4.963c-.863 1.524-2.174 2.848-3.93 3.97-1.756 1.122-3.945 1.999-6.565 2.632-2.62.633-5.687.95-9.2.95-5.989 0-11.92-1.05-17.794-3.151-5.875-2.1-11.317-5.25-16.327-9.451Zm-46.036-68.733H140V109H41v22.742h35.345V233h28.137V131.742Z"
      fill="#FFF" />
  </symbol>

  <symbol id="aws" viewBox="0 0 100 100">
    <defs>
      <clipPath id="aws-clip">
        <path fill="#fff" d="M0 0h100v100H0z" />
      </clipPath>
    </defs>
    <g clip-path="url(#aws-clip)">
      <path fill="#fff"
        d="M28.181 41.718c0 1.23.133 2.228.366 2.96.266.732.599 1.53 1.064 2.395.167.266.233.532.233.765 0 .332-.2.665-.632.998l-2.095 1.396c-.3.2-.599.3-.865.3-.332 0-.665-.166-.997-.466a10.3 10.3 0 0 1-1.198-1.563 26 26 0 0 1-1.03-1.962q-3.893 4.59-9.779 4.59c-2.794 0-5.022-.799-6.652-2.395S4.135 45.01 4.135 42.35c0-2.827.998-5.122 3.027-6.851s4.722-2.595 8.148-2.595c1.13 0 2.295.1 3.525.267 1.231.166 2.495.432 3.825.731v-2.428c0-2.527-.532-4.29-1.563-5.321-1.064-1.031-2.86-1.53-5.421-1.53-1.164 0-2.361.133-3.592.432-1.23.3-2.428.666-3.592 1.131a10 10 0 0 1-1.164.433c-.233.066-.4.1-.532.1-.466 0-.699-.333-.699-1.032v-1.63c0-.531.067-.93.233-1.163s.466-.466.931-.699q1.746-.898 4.191-1.497c1.63-.432 3.36-.631 5.188-.631 3.958 0 6.852.898 8.714 2.694 1.83 1.796 2.76 4.523 2.76 8.181v10.776zm-13.503 5.055c1.098 0 2.229-.2 3.426-.598 1.197-.4 2.261-1.131 3.16-2.129.532-.632.93-1.33 1.13-2.128s.333-1.763.333-2.894v-1.397a28 28 0 0 0-3.06-.565 25 25 0 0 0-3.126-.2c-2.229 0-3.858.433-4.956 1.33-1.098.899-1.63 2.163-1.63 3.825 0 1.564.4 2.728 1.23 3.526.8.831 1.963 1.23 3.493 1.23m26.707 3.592c-.599 0-.998-.1-1.264-.332-.266-.2-.499-.665-.698-1.297l-7.816-25.71c-.2-.665-.3-1.097-.3-1.33 0-.532.267-.831.799-.831h3.26c.631 0 1.063.1 1.296.332.266.2.466.666.666 1.297l5.587 22.018 5.188-22.018c.167-.665.366-1.097.632-1.297s.732-.332 1.33-.332h2.661c.632 0 1.065.1 1.33.332.267.2.5.666.633 1.297l5.255 22.284 5.753-22.284c.2-.665.433-1.097.665-1.297.267-.2.699-.332 1.298-.332h3.093c.532 0 .831.266.831.831 0 .166-.033.333-.066.532-.034.2-.1.466-.233.832L63.27 48.769q-.3.998-.699 1.297c-.266.2-.698.333-1.264.333h-2.86c-.632 0-1.064-.1-1.33-.333-.267-.233-.5-.665-.632-1.33L51.33 27.284l-5.122 21.419c-.167.665-.366 1.097-.632 1.33s-.732.332-1.33.332zm42.738.898c-1.73 0-3.46-.2-5.122-.598-1.663-.4-2.96-.832-3.825-1.33-.532-.3-.898-.633-1.03-.932-.134-.3-.2-.632-.2-.931v-1.696c0-.699.266-1.031.765-1.031q.3 0 .598.1c.2.066.5.199.832.332a18 18 0 0 0 3.658 1.164c1.33.266 2.628.4 3.958.4 2.095 0 3.725-.367 4.856-1.098s1.73-1.796 1.73-3.16c0-.931-.3-1.696-.899-2.328-.598-.632-1.73-1.197-3.359-1.73l-4.822-1.496c-2.428-.765-4.224-1.896-5.322-3.393-1.097-1.463-1.663-3.093-1.663-4.822q0-2.096.898-3.692a8.55 8.55 0 0 1 2.395-2.727c.998-.765 2.128-1.33 3.459-1.73S83.757 20 85.22 20c.732 0 1.497.033 2.229.133.765.1 1.463.233 2.162.366.665.166 1.297.332 1.895.532q.899.3 1.397.599c.466.266.798.532.998.831q.3.399.3 1.098v1.563c0 .698-.267 1.064-.766 1.064-.266 0-.698-.133-1.264-.399q-2.843-1.297-6.385-1.297c-1.896 0-3.393.3-4.424.931-1.03.632-1.563 1.597-1.563 2.96 0 .931.333 1.73.998 2.362s1.896 1.264 3.658 1.829l4.723 1.497c2.395.764 4.124 1.829 5.155 3.192s1.53 2.927 1.53 4.657c0 1.43-.3 2.727-.864 3.858-.6 1.13-1.397 2.128-2.428 2.926-1.031.832-2.262 1.43-3.692 1.863-1.497.466-3.06.698-4.756.698" />
      <path fill="#f90" fill-rule="evenodd"
        d="M90.409 67.427C79.466 75.51 63.569 79.8 49.899 79.8c-19.157 0-36.418-7.085-49.456-18.858-1.03-.932-.1-2.195 1.131-1.464 14.102 8.182 31.496 13.138 49.49 13.138 12.139 0 25.476-2.528 37.748-7.716 1.83-.832 3.393 1.197 1.597 2.527"
        clip-rule="evenodd" />
      <path fill="#f90" fill-rule="evenodd"
        d="M94.965 62.239c-1.397-1.796-9.246-.865-12.804-.433-1.065.134-1.231-.798-.267-1.496 6.253-4.39 16.53-3.127 17.727-1.663 1.198 1.497-.332 11.774-6.186 16.696-.898.765-1.762.366-1.363-.632 1.33-3.293 4.29-10.71 2.893-12.472"
        clip-rule="evenodd" />
    </g>
  </symbol>


  <symbol id="css-v2" viewBox="0 0 100 100">
    <path fill="#264de4" d="m94.175 0-8.033 89.99L50.034 100l-36.01-9.996L6 0z" />
    <path fill="#2965f1" d="m79.265 84.26 6.865-76.9H50.088v84.988z" />
    <path fill="#ebebeb"
      d="m24.396 40.74.99 11.039h24.702V40.74zm25.692-22.342h-27.68l1.003 11.038h26.676zm0 62.495V69.408l-.049.013-12.294-3.32-.786-8.803H25.878l1.547 17.332 22.612 6.277z" />
    <path fill="#fff"
      d="m63.642 51.779-1.281 14.316-12.312 3.323v11.484l22.63-6.272.166-1.865 2.594-29.06.27-2.965L77.7 18.398H50.05v11.038h15.555L64.599 40.74H50.05v11.04z" />
  </symbol>

  <symbol id="js-v2" viewBox="0 0 100 100">
    <defs>
      <clipPath id="js-clip">
        <path fill="#fff" d="M0 0h100v100H0z" />
      </clipPath>
    </defs>
    <g clip-path="url(#js-clip)">
      <path fill="#f7df1e" d="M100 0H0v100h100z" />
      <path fill="#000"
        d="M67.175 78.125c2.014 3.29 4.634 5.707 9.27 5.707 3.893 0 6.38-1.946 6.38-4.635 0-3.222-2.555-4.364-6.84-6.238l-2.35-1.008c-6.781-2.89-11.286-6.508-11.286-14.159 0-7.047 5.37-12.413 13.762-12.413 5.975 0 10.27 2.08 13.365 7.524l-7.317 4.699c-1.612-2.89-3.35-4.027-6.048-4.027-2.752 0-4.497 1.746-4.497 4.027 0 2.819 1.746 3.96 5.778 5.706l2.35 1.006c7.983 3.424 12.491 6.915 12.491 14.762 0 8.46-6.646 13.096-15.571 13.096-8.727 0-14.365-4.16-17.124-9.61zm-33.196.815c1.477 2.619 2.82 4.833 6.048 4.833 3.087 0 5.035-1.208 5.035-5.905V45.916h9.397v32.08c0 9.73-5.705 14.158-14.032 14.158-7.524 0-11.881-3.894-14.097-8.583z" />
    </g>
  </symbol>

  <symbol id="php-v2" viewBox="0 0 100 100">
    <defs>
      <radialGradient id="php-grad" cx="0" cy="0" r="1"
        gradientTransform="translate(30.02 32.945)scale(65.6573)" gradientUnits="userSpaceOnUse">
        <stop stop-color="#aeb2d5" />
        <stop offset=".3" stop-color="#aeb2d5" />
        <stop offset=".75" stop-color="#484c89" />
        <stop offset="1" stop-color="#484c89" />
      </radialGradient>
    </defs>
    <path fill="url(#php-grad)"
      d="M0 50c0 14.526 22.386 26.303 50 26.303S100 64.526 100 50c0-14.525-22.387-26.302-50-26.302S0 35.475 0 50" />
    <path fill="#777bb3"
      d="M50 74.35c26.535 0 48.047-10.903 48.047-24.35S76.535 25.651 50 25.651s-48.047 10.9-48.047 24.35C1.953 63.446 23.465 74.35 50 74.35" />
    <path fill="#000"
      d="M27.166 53.018c2.182 0 3.81-.402 4.84-1.195 1.02-.786 1.724-2.146 2.094-4.043.344-1.773.212-3.011-.39-3.68-.616-.683-1.948-1.029-3.96-1.029h-3.487l-1.932 9.947zM15.76 65.271a.54.54 0 0 1-.531-.647l5.123-26.358a.54.54 0 0 1 .53-.438h11.043c3.47 0 6.053.942 7.677 2.8 1.632 1.868 2.136 4.48 1.498 7.762a12.4 12.4 0 0 1-1.328 3.69 12.4 12.4 0 0 1-2.444 3.063c-1.196 1.119-2.55 1.931-4.02 2.409-1.448.472-3.307.71-5.524.71h-4.472l-1.277 6.57a.54.54 0 0 1-.533.439z" />
    <path fill="#fff"
      d="M26.711 43.613h3.04c2.427 0 3.27.533 3.557.851.474.527.565 1.638.258 3.213-.343 1.763-.978 3.014-1.89 3.715-.933.719-2.452 1.083-4.51 1.083h-2.177zm5.214-6.328H20.884a1.086 1.086 0 0 0-1.066.878L14.695 64.52a1.086 1.086 0 0 0 1.065 1.291h5.742a1.086 1.086 0 0 0 1.065-.878l1.192-6.13h4.024c2.275 0 4.19-.248 5.693-.737 1.544-.501 2.965-1.352 4.223-2.529 1.013-.922 1.873-2 2.546-3.193a13 13 0 0 0 1.387-3.852c.672-3.456.126-6.222-1.622-8.222-1.731-1.982-4.451-2.987-8.085-2.987z" />
    <path fill="#000"
      d="M54.265 58.264a.543.543 0 0 1-.533-.646l2.265-11.663c.217-1.11.164-1.904-.148-2.242-.191-.206-.765-.55-2.46-.55h-4.107l-2.849 14.663a.54.54 0 0 1-.533.437h-5.695a.545.545 0 0 1-.534-.645l5.123-26.359a.54.54 0 0 1 .533-.438h5.695a.543.543 0 0 1 .534.645L50.32 37.83h4.416c3.365 0 5.647.592 6.976 1.813 1.353 1.244 1.777 3.234 1.256 5.916l-2.384 12.267a.54.54 0 0 1-.533.438z" />
    <path fill="#fff"
      d="M51.023 30.278h-5.696a1.086 1.086 0 0 0-1.065.878l-5.123 26.358a1.085 1.085 0 0 0 1.065 1.292H45.9a1.086 1.086 0 0 0 1.066-.878l2.763-14.223h3.658c1.693 0 2.05.362 2.063.378.103.11.238.621.015 1.769l-2.266 11.662a1.086 1.086 0 0 0 1.066 1.292h5.787a1.086 1.086 0 0 0 1.065-.878l2.384-12.266c.558-2.88.08-5.04-1.422-6.42-1.435-1.317-3.836-1.957-7.342-1.957h-3.758l1.11-5.714a1.087 1.087 0 0 0-1.066-1.293" />
    <path fill="#000"
      d="M71.981 53.018c2.182 0 3.811-.402 4.843-1.195 1.018-.786 1.723-2.146 2.093-4.043.343-1.773.213-3.011-.391-3.68-.616-.683-1.948-1.029-3.959-1.029h-3.486l-1.934 9.947zM60.578 65.271a.542.542 0 0 1-.533-.647l5.123-26.358a.54.54 0 0 1 .533-.438h11.041c3.47 0 6.053.942 7.677 2.8 1.632 1.868 2.136 4.48 1.498 7.762a12.4 12.4 0 0 1-1.328 3.69 12.4 12.4 0 0 1-2.444 3.063c-1.195 1.119-2.55 1.931-4.02 2.409-1.448.472-3.307.71-5.525.71h-4.471l-1.276 6.57a.54.54 0 0 1-.533.439z" />
    <path fill="#fff"
      d="M71.527 43.613h3.04c2.428 0 3.27.533 3.557.851.476.527.565 1.638.26 3.213-.344 1.763-.98 3.014-1.892 3.715-.933.719-2.452 1.083-4.51 1.083h-2.176zm5.215-6.328H65.7a1.086 1.086 0 0 0-1.065.878L59.512 64.52a1.085 1.085 0 0 0 1.065 1.291h5.743a1.086 1.086 0 0 0 1.065-.878l1.19-6.13H72.6c2.275 0 4.19-.248 5.692-.737 1.546-.501 2.967-1.352 4.225-2.53a12.9 12.9 0 0 0 2.546-3.192 13 13 0 0 0 1.386-3.852c.672-3.456.127-6.222-1.621-8.222-1.732-1.982-4.451-2.987-8.086-2.987z" />
  </symbol>

  <symbol id="laravel" viewBox="0 0 100 100">
    <path fill="#ff2d20"
      d="M98.494 22.485q.054.2.054.406v21.335a1.56 1.56 0 0 1-.782 1.349L79.86 55.885v20.433a1.56 1.56 0 0 1-.777 1.35L41.705 99.184c-.085.049-.179.08-.272.113-.035.012-.068.033-.105.043a1.6 1.6 0 0 1-.797 0c-.043-.012-.082-.035-.123-.05-.085-.032-.175-.059-.256-.106L2.782 77.668A1.56 1.56 0 0 1 2 76.318V12.316q.001-.21.055-.409c.011-.044.039-.085.054-.13.03-.082.057-.165.1-.241.028-.05.071-.091.106-.138.045-.062.086-.127.138-.18.045-.046.103-.079.154-.118.056-.046.107-.097.171-.134h.002L21.466.208a1.56 1.56 0 0 1 1.555 0l18.686 10.758h.004c.062.04.115.088.171.133.05.038.107.073.152.116.054.056.093.12.14.183.033.047.078.087.105.138.044.078.07.16.1.241.017.045.044.086.055.132q.054.2.055.407V52.29l15.57-8.966V22.89c0-.136.02-.274.055-.404.014-.047.039-.087.055-.132.03-.082.058-.166.1-.241.03-.05.073-.092.106-.138.046-.063.085-.127.14-.181.044-.045.1-.078.151-.117.059-.047.11-.097.171-.134h.002l18.688-10.759a1.56 1.56 0 0 1 1.556 0l18.686 10.759c.066.039.116.087.174.132.05.04.106.074.15.117.055.056.093.12.14.183.035.046.078.087.105.138.045.076.07.16.101.24.018.046.043.086.055.133m-3.06 20.84v-17.74l-6.54 3.764-9.034 5.201v17.74l15.575-8.965zM76.746 75.418V57.665l-8.885 5.075-25.375 14.482v17.92zM5.115 15.008v60.41L39.372 95.14V77.224L21.476 67.096l-.006-.004-.008-.004c-.06-.035-.11-.086-.167-.128-.049-.04-.105-.07-.148-.113l-.004-.006c-.05-.049-.085-.109-.128-.163-.04-.053-.086-.097-.117-.152l-.002-.006c-.035-.058-.056-.128-.082-.194-.025-.059-.058-.113-.073-.175v-.002c-.02-.074-.024-.152-.032-.228-.007-.058-.023-.116-.023-.175V23.974l-9.032-5.203-6.539-3.76zm17.13-11.654L6.678 12.316l15.565 8.962 15.567-8.964-15.567-8.96zm8.097 55.93 9.032-5.2V15.009l-6.54 3.764-9.033 5.201V63.05zM78.305 13.93l-15.567 8.96 15.567 8.962L93.87 22.89zm-1.558 20.62-9.033-5.201-6.54-3.765v17.741l9.032 5.2 6.541 3.766zm-35.82 39.98 22.834-13.036 11.413-6.514-15.555-8.956-17.91 10.311-16.323 9.398z" />
  </symbol>

  <symbol id="java" viewBox="0 0 100 100">
    <path fill="#5382a1"
      d="M36.753 77.336s-3.822 2.222 2.72 2.974c7.924.904 11.973.774 20.706-.879 0 0 2.296 1.44 5.502 2.687-19.576 8.39-44.304-.486-28.928-4.782M34.36 66.387s-4.286 3.173 2.26 3.85c8.464.873 15.15.945 26.717-1.283 0 0 1.6 1.622 4.115 2.51-23.668 6.92-50.03.545-33.092-5.077" />
    <path fill="#e76f00"
      d="M54.527 47.815c4.823 5.554-1.267 10.551-1.267 10.551s12.247-6.322 6.622-14.24C54.63 36.743 50.6 33.074 72.41 20.425c0 0-34.234 8.55-17.883 27.39" />
    <path fill="#5382a1"
      d="M80.418 85.434s2.827 2.33-3.115 4.133c-11.3 3.423-47.03 4.456-56.956.136-3.568-1.552 3.124-3.706 5.228-4.159 2.195-.475 3.45-.387 3.45-.387-3.968-2.795-25.648 5.49-11.012 7.861 39.913 6.473 72.757-2.914 62.405-7.584M38.59 55.044s-18.174 4.317-6.436 5.884c4.956.664 14.837.514 24.04-.258 7.522-.634 15.075-1.983 15.075-1.983s-2.653 1.136-4.571 2.446c-18.457 4.854-54.11 2.596-43.846-2.37 8.68-4.195 15.738-3.72 15.738-3.72m32.603 18.224c18.762-9.75 10.088-19.118 4.033-17.856-1.484.309-2.146.576-2.146.576s.551-.863 1.603-1.236c11.978-4.212 21.19 12.42-3.867 19.007 0 0 .29-.26.377-.491" />
    <path fill="#e76f00"
      d="M59.882 0s10.39 10.395-9.855 26.377C33.793 39.2 46.325 46.51 50.02 54.861c-9.476-8.55-16.43-16.077-11.765-23.082C45.103 21.496 64.075 16.51 59.882 0" />
    <path fill="#5382a1"
      d="M40.434 99.686c18.009 1.153 45.663-.64 46.318-9.161 0 0-1.26 3.23-14.883 5.796-15.371 2.892-34.329 2.555-45.573.7 0 0 2.302 1.906 14.138 2.665" />
  </symbol>

  <symbol id="tailwind-v2" viewBox="0 0 100 100">
    <defs>
      <clipPath id="tw-clip">
        <path fill="#fff" d="M0 0h100v100H0z" />
      </clipPath>
    </defs>
    <g clip-path="url(#tw-clip)">
      <path fill="#06b6d4"
        d="M50 20q-20 0-25 19.994 7.5-9.997 17.5-7.498c3.804.95 6.522 3.71 9.532 6.764 4.902 4.974 10.576 10.731 22.969 10.731q20 0 24.999-19.995-7.5 9.997-17.5 7.5c-3.803-.951-6.521-3.71-9.531-6.765C68.067 25.758 62.392 20 50 20M25 49.991q-20 0-25 19.995 7.5-9.998 17.5-7.498c3.803.952 6.522 3.71 9.532 6.763C31.933 74.225 37.608 79.984 50 79.984q20 0 25-19.995-7.5 9.997-17.5 7.498c-3.803-.95-6.522-3.71-9.532-6.763C43.066 55.75 37.393 49.991 25 49.991" />
    </g>
  </symbol>

  <symbol id="python" viewBox="0 0 100 100">
    <defs>
      <linearGradient id="python-grad-blue-v1" x1="-1.392" x2="53.633" y1="2.844" y2="49.769"
        gradientUnits="userSpaceOnUse">
        <stop stop-color="#5a9fd4" />
        <stop offset="1" stop-color="#306998" />
      </linearGradient>
      <linearGradient id="python-grad-yellow-v1" x1="74.335" x2="54.603" y1="78.937" y2="51.265"
        gradientUnits="userSpaceOnUse">
        <stop stop-color="#ffd43b" />
        <stop offset="1" stop-color="#ffe873" />
      </linearGradient>
      <clipPath id="python-clip-v1">
        <path fill="#fff" d="M0 0h100v100H0z" />
      </clipPath>
    </defs>
    <g clip-path="url(#python-clip-v1)">
      <path fill="url(#python-grad-blue-v1)"
        d="M49.866 0c-4.08.02-7.973.367-11.4.974C28.368 2.757 26.537 6.49 26.537 13.376v9.092h23.856v3.03h-32.81c-6.934 0-13.005 4.168-14.904 12.098-2.191 9.086-2.288 14.758 0 24.246 1.695 7.063 5.745 12.095 12.68 12.095h8.203v-10.9c0-7.875 6.812-14.82 14.903-14.82h23.83c6.633 0 11.928-5.463 11.928-12.123V13.377c0-6.466-5.455-11.323-11.928-12.402-4.1-.682-8.352-.993-12.43-.974M36.964 7.314c2.464 0 4.477 2.046 4.477 4.562 0 2.505-2.013 4.53-4.477 4.53-2.473 0-4.476-2.025-4.476-4.53-.001-2.516 2.003-4.562 4.476-4.562" />
      <path fill="url(#python-grad-yellow-v1)"
        d="M77.198 25.498v10.594c0 8.212-6.964 15.125-14.903 15.125h-23.83c-6.527 0-11.928 5.587-11.928 12.124V86.06c0 6.464 5.621 10.268 11.928 12.122 7.551 2.219 14.793 2.621 23.83 0 6.005-1.74 11.927-5.24 11.927-12.122v-9.094H50.394v-3.031h35.758c6.933 0 9.519-4.836 11.93-12.095 2.491-7.473 2.383-14.66 0-24.246-1.714-6.903-4.986-12.097-11.93-12.097zm-13.403 57.53c2.474 0 4.477 2.026 4.477 4.533 0 2.514-2.004 4.56-4.477 4.56-2.464 0-4.476-2.046-4.476-4.56 0-2.507 2.012-4.533 4.476-4.533" />
    </g>
  </symbol>

  <symbol id="gmail" viewBox="0 0 24 24">
    <title>Gmail</title>
    <path fill="currentColor"
      d="M24 5.457v13.909c0 .904-.732 1.636-1.636 1.636h-3.819V11.73L12 16.64l-6.545-4.91v9.273H1.636A1.636 1.636 0 0 1 0 19.366V5.457c0-2.023 2.309-3.178 3.927-1.964L5.455 4.64 12 9.548l6.545-4.91 1.528-1.145C21.69 2.28 24 3.434 24 5.457z" />
  </symbol>

  <symbol id="swift" viewBox="0 0 100 100">
    <path fill="#1f305f" fill-rule="evenodd" d="M97.811 17c-1.535.051-1.09.743-4.414 1.564-3.357.826-7.416.32-11.026 1.839-9.447 3.958-10.977 19.264-22.228 25.185-7.377 4.166-14.9 5.122-21.626 7.231-5.398 2.165-8.755 3.599-12.713 7.012-3.07 2.648-3.818 5.218-7.029 8.541-3.256 4.425-15.598.495-18.775 6.045 1.676 1.085 2.643 1.383 5.584.995-.608 1.153-4.476 2.67-3.773 4.369 0 0 9.35 1.704 17.234-3.053 3.677-1.496 7.124-4.662 12.837-5.42 7.4-.985 15.739 1.551 24.685 2.265-1.85 3.655-3.756 5.814-5.797 8.828-.63.68.54 1.282 2.71.872 3.902-.967 6.73-2.013 9.536-3.953 3.66-2.525 5.235-4.836 8.322-8.496 2.683 4.301 12.14 5.246 14.08 1.53-3.61-1.53-4.38-9.487-3.143-12.922 1.462-3.273 2.513-7.9 3.694-12.202 1.063-3.874 1.72-9.784 2.992-12.81 1.518-3.761 4.47-4.936 6.685-6.932 2.216-1.997 4.42-3.661 4.353-8.227-.023-1.484-.788-2.305-2.188-2.26" clip-rule="evenodd"/><path fill="#c0765a" d="M2.823 78.994c5.797.174 7.371.022 11.954-1.968 3.897-1.693 9.11-6.253 13.714-7.726 6.76-2.17 14.007-1.845 21.199-.996 2.407.287 4.824.686 6.55.5 2.694-1.652 2.823-6.14 4.493-6.5-.455 8.683-4.177 14.238-7.9 19.276 7.844-1.383 13.085-6.28 16.256-12.342.962-1.839 2.558-4.847 3.29-6.916.579 1.372-.754 2.243-.13 3.739 5.05-4.167 7.434-8.913 9.48-15.863 2.373-8.04 4.808-14.95 6.338-17.33 1.49-2.322 3.812-3.756 5.932-5.24 2.406-1.692 4.56-3.453 4.931-6.674-2.542-.237-3.126-.821-3.503-2.103-1.27.714-2.44.871-3.762.91-1.147.034-2.406-.016-3.947.141-12.725 1.305-13.315 13.743-22.565 22.874a28 28 0 0 1-2.289 1.94c-2.856 2.131-5.915 3.3-9.137 4.532-5.218 1.99-10.166 2.57-15.058 4.29-3.593 1.26-6.933 2.705-9.885 4.724-.737.506-1.738 1.406-2.379 1.928-1.732 1.418-2.867 2.986-3.97 4.606-1.135 1.664-2.226 3.38-3.896 5.015-2.705 2.654-12.804.776-16.363 3.24-.394.275-.714.6-.928.994 1.94.883 3.239.343 5.471.585.276 2.131-4.622 3.39-3.896 4.364"/><path fill="#1f305f" fill-rule="evenodd" d="M83.478 25.165c1.8 1.564 5.578.31 4.904-2.8-2.8-.236-4.42.714-4.904 2.8" clip-rule="evenodd"/><path fill="#1f305f" d="M96.034 21.528c-.478 1.006-1.394 2.3-1.394 4.858-.006.438-.332.742-.338.062.023-2.503.686-3.582 1.39-5 .32-.578.517-.342.342.08"/><path fill="#1f305f" d="M95.55 21.15c-.567.957-1.928 2.705-2.147 5.258-.04.439-.4.709-.343.034.247-2.486 1.332-4.043 2.159-5.398.371-.551.545-.298.332.107m-.439-.501c-.646.906-2.738 3.009-3.177 5.528-.079.432-.455.669-.343.005.456-2.457 2.26-4.391 3.194-5.668.416-.523.574-.253.326.135m-.393-.562c-.765.81-3.262 3.486-4.049 5.92-.14.417-.546.602-.343-.044.793-2.373 2.98-4.926 4.088-6.056.49-.456.601-.163.303.18"/>
  </symbol>

  <symbol id="vscode" viewBox="0 0 100 100">
    <path fill="#2489ca" d="M.951 35.498s-2.435-1.756.488-4.1l6.81-6.089s1.948-2.05 4.008-.264l62.839 47.576v22.814s-.03 3.582-4.628 3.186z"/><path fill="#1070b3" d="M17.148 50.204.951 64.929s-1.664 1.238 0 3.45l7.52 6.84s1.787 1.919 4.425-.263l17.171-13.02z"/><path fill="#0877b9" d="M45.584 50.325 75.29 27.643l-.193-22.692S73.827 0 69.596 2.577L30.067 38.553z"/><path fill="#3c99d4" d="M70.469 98.652c1.725 1.766 3.815 1.188 3.815 1.188l23.149-11.407c2.963-2.02 2.547-4.526 2.547-4.526V15.79c0-2.994-3.065-4.029-3.065-4.029L76.852 2.09c-4.384-2.71-7.256.487-7.256.487s3.694-2.659 5.5 2.375v90.067c0 .62-.132 1.228-.396 1.776-.527 1.066-1.674 2.06-4.424 1.644z"/>
  </symbol>

  <symbol id="git-icon" viewBox="0 0 100 100">
    <g clip-path="url(#git-clip)">
      <path fill="#de4c36" d="M98.114 45.544 54.454 1.886a6.44 6.44 0 0 0-9.108 0l-9.066 9.066 11.5 11.501a7.65 7.65 0 0 1 7.869 1.834 7.66 7.66 0 0 1 1.817 7.916L68.55 43.287c2.682-.923 5.776-.326 7.918 1.82a7.66 7.66 0 0 1 0 10.836 7.662 7.662 0 0 1-12.508-8.335L53.623 37.271v27.202a7.663 7.663 0 0 1 2.026 12.288 7.66 7.66 0 0 1-10.836 0 7.663 7.663 0 0 1 2.508-12.51V36.795a7.6 7.6 0 0 1-2.508-1.672 7.66 7.66 0 0 1-1.651-8.377l-11.338-11.34L1.887 45.344a6.44 6.44 0 0 0 0 9.11l43.661 43.659a6.44 6.44 0 0 0 9.108 0l43.458-43.457a6.444 6.444 0 0 0 0-9.11"/>
    </g>
    <defs>
      <clipPath id="git-clip">
        <path fill="#fff" d="M0 0h100v100H0z"/>
      </clipPath>
    </defs>
  </symbol>


</svg>