<svg xmlns="http://www.w3.org/2000/svg" xmlns:xlink="http://www.w3.org/1999/xlink" style="display:none">
  
  <symbol id="x" viewBox="0 0 1200 1227">
    <path fill="currentColor" d="M714.163 519.284 1160.89 0h-105.86L667.137 450.887 357.328 0H0l468.492 681.821L0 1226.37h105.866l409.625-476.152 327.181 476.152H1200L714.137 519.284h.026ZM569.165 687.828l-47.468-67.894-377.686-540.24h162.604l304.797 435.991 47.468 67.894 396.2 566.721H892.476L569.165 687.854v-.026Z" />
  </symbol>

  <symbol id="instagram" viewBox="0 0 256 256">
    <path fill="currentColor" d="M128 23.064c34.177 0 38.225.13 51.722.745 12.48.57 19.258 2.655 23.769 4.408 5.974 2.322 10.238 5.096 14.717 9.575 4.48 4.479 7.253 8.743 9.575 14.717 1.753 4.511 3.838 11.289 4.408 23.768.615 13.498.745 17.546.745 51.723 0 34.178-.13 38.226-.745 51.723-.57 12.48-2.655 19.257-4.408 23.768-2.322 5.974-5.096 10.239-9.575 14.718-4.479 4.479-8.743 7.253-14.717 9.574-4.511 1.753-11.289 3.839-23.769 4.408-13.495.616-17.543.746-51.722.746-34.18 0-38.228-.13-51.723-.746-12.48-.57-19.257-2.655-23.768-4.408-5.974-2.321-10.239-5.095-14.718-9.574-4.479-4.48-7.253-8.744-9.574-14.718-1.753-4.51-3.839-11.288-4.408-23.768-.616-13.497-.746-17.545-.746-51.723 0-34.177.13-38.225.746-51.722.57-12.48 2.655-19.258 4.408-23.769 2.321-5.974 5.095-10.238 9.574-14.717 4.48-4.48 8.744-7.253 14.718-9.575 4.51-1.753 11.289-3.838 23.768-4.408 13.497-.615 17.545-.745 51.723-.745M128 0C93.237 0 88.878.147 75.226.77c-13.625.622-22.93 2.786-31.071 5.95-8.418 3.271-15.556 7.648-22.672 14.764C14.367 28.6 9.991 35.738 6.72 44.155 3.555 52.297 1.392 61.602.77 75.226.147 88.878 0 93.237 0 128c0 34.763.147 39.122.77 52.774.622 13.625 2.785 22.93 5.95 31.071 3.27 8.417 7.647 15.556 14.763 22.672 7.116 7.116 14.254 11.492 22.672 14.763 8.142 3.165 17.446 5.328 31.07 5.95 13.653.623 18.012.77 52.775.77s39.122-.147 52.774-.77c13.624-.622 22.929-2.785 31.07-5.95 8.418-3.27 15.556-7.647 22.672-14.763 7.116-7.116 11.493-14.254 14.764-22.672 3.164-8.142 5.328-17.446 5.95-31.07.623-13.653.77-18.012.77-52.775s-.147-39.122-.77-52.774c-.622-13.624-2.786-22.929-5.95-31.07-3.271-8.418-7.648-15.556-14.764-22.672C227.4 14.368 220.262 9.99 211.845 6.72c-8.142-3.164-17.447-5.328-31.071-5.95C167.122.147 162.763 0 128 0Zm0 62.27C91.698 62.27 62.27 91.7 62.27 128c0 36.302 29.428 65.73 65.73 65.73 36.301 0 65.73-29.428 65.73-65.73 0-36.301-29.429-65.73-65.73-65.73Zm0 108.397c-23.564 0-42.667-19.103-42.667-42.667S104.436 85.333 128 85.333s42.667 19.103 42.667 42.667-19.103 42.667-42.667 42.667Zm83.686-110.994c0 8.484-6.876 15.36-15.36 15.36-8.483 0-15.36-6.876-15.36-15.36 0-8.483 6.877-15.36 15.36-15.36 8.484 0 15.36 6.877 15.36 15.36Z" />
  </symbol>

  <symbol id="linkedin" viewBox="0 0 256 256">
    <path fill="currentColor" d="M218.123 218.127h-37.931v-59.403c0-14.165-.253-32.4-19.728-32.4-19.756 0-22.779 15.434-22.779 31.369v60.43h-37.93V95.967h36.413v16.694h.51a39.907 39.907 0 0 1 35.928-19.733c38.445 0 45.533 25.288 45.533 58.186l-.016 67.013ZM56.955 79.27c-12.157.002-22.014-9.852-22.016-22.009-.002-12.157 9.851-22.014 22.008-22.016 12.157-.003 22.014 9.851 22.016 22.008A22.013 22.013 0 0 1 56.955 79.27m18.966 138.858H37.95V95.967h37.97v122.16ZM237.033.018H18.89C8.58-.098.125 8.161-.001 18.471v219.053c.122 10.315 8.576 18.582 18.89 18.474h218.144c10.336.128 18.823-8.139 18.966-18.474V18.454c-.147-10.33-8.635-18.588-18.966-18.453" />
  </symbol>

  <symbol id="youtube" viewBox="0 0 256 180">
    <path fill="currentColor" d="M250.346 28.075A32.18 32.18 0 0 0 227.69 5.418C207.824 0 127.87 0 127.87 0S47.912.164 28.046 5.582A32.18 32.18 0 0 0 5.39 28.24c-6.009 35.298-8.34 89.084.165 122.97a32.18 32.18 0 0 0 22.656 22.657c19.866 5.418 99.822 5.418 99.822 5.418s79.955 0 99.82-5.418a32.18 32.18 0 0 0 22.657-22.657c6.338-35.348 8.291-89.1-.164-123.134Z" />
    <path fill="#FDFCF7" d="m102.421 128.06 66.328-38.418-66.328-38.418z" />
  </symbol>

  <symbol id="github" viewBox="0 0 1024 1024">
    <path fill="currentColor" fill-rule="evenodd" clip-rule="evenodd" d="M8 0C3.58 0 0 3.58 0 8C0 11.54 2.29 14.53 5.47 15.59C5.87 15.66 6.02 15.42 6.02 15.21C6.02 15.02 6.01 14.39 6.01 13.72C4 14.09 3.48 13.23 3.32 12.78C3.23 12.55 2.84 11.84 2.5 11.65C2.22 11.5 1.82 11.13 2.49 11.12C3.12 11.11 3.57 11.7 3.72 11.94C4.44 13.15 5.59 12.81 6.05 12.6C6.12 12.08 6.33 11.73 6.56 11.53C4.78 11.33 2.92 10.64 2.92 7.58C2.92 6.71 3.23 5.99 3.74 5.43C3.66 5.23 3.38 4.41 3.82 3.31C3.82 3.31 4.49 3.1 6.02 4.13C6.66 3.95 7.34 3.86 8.02 3.86C8.7 3.86 9.38 3.95 10.02 4.13C11.55 3.09 12.22 3.31 12.22 3.31C12.66 4.41 12.38 5.23 12.3 5.43C12.81 5.99 13.12 6.7 13.12 7.58C13.12 10.65 11.25 11.33 9.47 11.53C9.76 11.78 10.01 12.26 10.01 13.01C10.01 14.08 10 14.94 10 15.21C10 15.42 10.15 15.67 10.55 15.59C13.71 14.53 16 11.53 16 8C16 3.58 12.42 0 8 0Z" transform="scale(64)" />
  </symbol>

  <symbol id="gmail" viewBox="0 0 24 24">
    <path fill="currentColor" d="M24 5.457v13.909c0 .904-.732 1.636-1.636 1.636h-3.819V11.73L12 16.64l-6.545-4.91v9.273H1.636A1.636 1.636 0 0 1 0 19.366V5.457c0-2.023 2.309-3.178 3.927-1.964L5.455 4.64 12 9.548l6.545-4.91 1.528-1.145C21.69 2.28 24 3.434 24 5.457z" />
  </symbol>

  

  <symbol id="amazon" viewBox="0 0 24 24">
    <path fill="currentColor" d="M13.23 10.56V10c-1.94.02-3.99.25-3.99 2.18 0 .95.49 1.59 1.33 1.59.62 0 1.17-.38 1.52-.99.43-.73.14-1.47.14-2.22zm2.7 3.28c-.18.16-.43.17-.63.06-1.22-.98-1.44-1.44-2.11-2.38-1.01 1.03-1.73 1.34-3.04 1.34-1.55 0-2.76-.96-2.76-2.88 0-1.5.81-2.52 1.97-3.02.55-.24 1.33-.43 1.97-.6.91-.26 1.67-.49 1.67-1.28 0-.79-.7-1.28-1.64-1.28-1.16 0-1.78.56-1.97 1.47-.05.24-.22.47-.48.46l-2.15-.23c-.23-.05-.5-.24-.43-.59.5-2.67 2.73-3.47 4.89-3.47 1.08 0 2.48.28 3.33.99 1.08.95 1 2.22 1 3.6v3.25c0 .98.4 1.41.79 1.94.13.18.16.41-.01.55-.43.36-1.19 1.02-1.61 1.39l-.25-.22zm4.07 2.67c-3.58 3.09-8.79 2.27-11.75-.37-2.87-2.57-3.26-6.65-.78-9.6.09-.11.25-.04.23.11-.56 1.9-.04 3.72 1.21 5.17 2.28 2.7 6.14 3.59 9.18 2.04.12-.07.24.04.17.16-.09.16-.19.34-.26.49z"/>
  </symbol>

  <symbol id="hg" viewBox="0 0 200 200">
    <g fill="none" stroke="currentColor" stroke-width="5" stroke-linecap="round" stroke-linejoin="round">
      <path d="M60 60 V140" />
      <path d="M100 60 V140" />
      <path d="M60 100 H100" />
      <path d="M140 75 C140 60 120 55 100 60 C75 65 75 135 100 140 C125 145 140 130 140 110 H115" />
    </g>
  </symbol>

  <symbol id="html" viewBox="0 0 452 520">
    <path fill="#e34f26" d="M41 460L0 0h451l-41 460-185 52" />
    <path fill="#ef652a" d="M226 472l149-41 35-394H226" />
    <path fill="#ecedee" d="M226 208h-75l-5-58h80V94H84l15 171h127zm0 147l-64-17-4-45h-56l7 89 117 32z" />
    <path fill="#fff" d="M226 265h69l-7 73-62 17v59l115-32 16-174H226zm0-171v56h136l5-56z" />
  </symbol>

  <symbol id="css" viewBox="0 0 100 100">
    <path fill="#264de4" d="m94.175 0-8.033 89.99L50.034 100l-36.01-9.996L6 0z" />
    <path fill="#2965f1" d="m79.265 84.26 6.865-76.9H50.088v84.988z" />
    <path fill="#ebebeb" d="m24.396 40.74.99 11.039h24.702V40.74zm25.692-22.342h-27.68l1.003 11.038h26.676zm0 62.495V69.408l-.049.013-12.294-3.32-.786-8.803H25.878l1.547 17.332 22.612 6.277z" />
    <path fill="#fff" d="m63.642 51.779-1.281 14.316-12.312 3.323v11.484l22.63-6.272.166-1.865 2.594-29.06.27-2.965L77.7 18.398H50.05v11.038h15.555L64.599 40.74H50.05v11.04z" />
  </symbol>

  <symbol id="js" viewBox="0 0 100 100">
    <path fill="#f7df1e" d="M100 0H0v100h100z" />
    <path fill="#000" d="M67.175 78.125c2.014 3.29 4.634 5.707 9.27 5.707 3.893 0 6.38-1.946 6.38-4.635 0-3.222-2.555-4.364-6.84-6.238l-2.35-1.008c-6.781-2.89-11.286-6.508-11.286-14.159 0-7.047 5.37-12.413 13.762-12.413 5.975 0 10.27 2.08 13.365 7.524l-7.317 4.699c-1.612-2.89-3.35-4.027-6.048-4.027-2.752 0-4.497 1.746-4.497 4.027 0 2.819 1.746 3.96 5.778 5.706l2.35 1.006c7.983 3.424 12.491 6.915 12.491 14.762 0 8.46-6.646 13.096-15.571 13.096-8.727 0-14.365-4.16-17.124-9.61zm-33.196.815c1.477 2.619 2.82 4.833 6.048 4.833 3.087 0 5.035-1.208 5.035-5.905V45.916h9.397v32.08c0 9.73-5.705 14.158-14.032 14.158-7.524 0-11.881-3.894-14.097-8.583z" />
  </symbol>

  <symbol id="react" viewBox="0 0 569 512">
    <g fill="none" fill-rule="evenodd">
      <g transform="translate(-227, -256)" fill="#58C4DC" fill-rule="nonzero">
        <g transform="translate(227, 256)">
          <path d="M285.5,201 C255.400481,201 231,225.400481 231,255.5 C231,285.599519 255.400481,310 285.5,310 C315.599519,310 340,285.599519 340,255.5 C340,225.400481 315.599519,201 285.5,201" />
          <path d="M568.959856,255.99437 C568.959856,213.207656 529.337802,175.68144 466.251623,150.985214 C467.094645,145.423543 467.85738,139.922107 468.399323,134.521063 C474.621631,73.0415145 459.808523,28.6686204 426.709856,9.5541429 C389.677085,-11.8291748 337.36955,3.69129898 284.479928,46.0162134 C231.590306,3.69129898 179.282771,-11.8291748 142.25,9.5541429 C109.151333,28.6686204 94.3382249,73.0415145 100.560533,134.521063 C101.102476,139.922107 101.845139,145.443621 102.708233,151.02537 C97.4493791,153.033193 92.2908847,155.161486 87.3331099,157.39017 C31.0111824,182.708821 0,217.765415 0,255.99437 C0,298.781084 39.6220545,336.307301 102.708233,361.003527 C101.845139,366.565197 101.102476,372.066633 100.560533,377.467678 C94.3382249,438.947226 109.151333,483.32012 142.25,502.434597 C153.629683,508.887578 166.52439,512.186771 179.603923,511.991836 C210.956328,511.991836 247.567589,495.487529 284.479928,465.972527 C321.372196,495.487529 358.003528,511.991836 389.396077,511.991836 C402.475265,512.183856 415.36922,508.884856 426.75,502.434597 C459.848667,483.32012 474.661775,438.947226 468.439467,377.467678 C467.897524,372.066633 467.134789,366.565197 466.291767,361.003527 C529.377946,336.347457 569,298.761006 569,255.99437 M389.155214,27.1025182 C397.565154,26.899606 405.877839,28.9368502 413.241569,33.0055186 C436.223966,46.2772304 446.540955,82.2775015 441.522965,131.770345 C441.181741,135.143488 440.780302,138.556788 440.298575,141.990165 C414.066922,134.08804 387.205771,128.452154 360.010724,125.144528 C343.525021,103.224055 325.192524,82.7564475 305.214266,63.9661533 C336.586743,39.7116483 366.032313,27.1025182 389.135142,27.1025182" />
        </g>
      </g>
    </g>
  </symbol>

  <symbol id="node" viewBox="0 0 256 292">
    <path fill="#418B3D" d="M134.923 1.832c-4.344-2.443-9.502-2.443-13.846 0L6.787 67.801C2.443 70.244 0 74.859 0 79.745v132.208c0 4.887 2.715 9.502 6.787 11.945l114.29 65.968c4.344 2.444 9.502 2.444 13.846 0l114.29-65.968c4.344-2.443 6.787-7.058 6.787-11.945V79.745c0-4.886-2.715-9.501-6.787-11.944L134.923 1.832Z" />
    <path fill="#66B848" d="M249.485 67.8 134.65 1.833c-1.086-.542-2.443-1.085-3.529-1.357L2.443 220.912c1.086 1.357 2.444 2.443 3.8 3.258l114.834 65.968c3.258 1.9 7.059 2.443 10.588 1.357L252.47 70.515c-.815-1.086-1.9-1.9-2.986-2.714Z" />
    <path fill="#54A044" d="M249.756 223.898c3.258-1.9 5.701-5.158 6.787-8.687L130.579.204c-3.258-.543-6.787-.272-9.773 1.628L6.786 67.53l122.979 224.238c1.628-.272 3.529-.815 5.158-1.63l114.833-66.239Z" />
  </symbol>

  <symbol id="typescript" viewBox="0 0 256 256">
    <rect width="256" height="256" rx="20" fill="#3178C6" />
    <path d="M150.518 200.475v27.62c4.492 2.302 9.805 4.028 15.938 5.179 6.133 1.151 12.597 1.726 19.393 1.726 6.622 0 12.914-.633 18.874-1.899 5.96-1.266 11.187-3.352 15.678-6.257 4.492-2.906 8.048-6.704 10.669-11.394 2.62-4.689 3.93-10.486 3.93-17.391 0-5.006-.749-9.394-2.246-13.163a30.748 30.748 0 0 0-6.479-10.055c-2.821-2.935-6.205-5.567-10.149-7.898-3.945-2.33-8.394-4.531-13.347-6.602-3.628-1.497-6.881-2.949-9.761-4.359-2.879-1.41-5.327-2.848-7.342-4.316-2.016-1.467-3.571-3.021-4.665-4.661-1.094-1.64-1.641-3.495-1.641-5.567 0-1.899.489-3.61 1.468-5.135s2.362-2.834 4.147-3.927c1.785-1.094 3.973-1.942 6.565-2.547 2.591-.604 5.471-.906 8.638-.906 2.304 0 4.737.173 7.299.518 2.563.345 5.14.877 7.732 1.597a53.669 53.669 0 0 1 7.558 2.719 41.7 41.7 0 0 1 6.781 3.797v-25.807c-4.204-1.611-8.797-2.805-13.778-3.582-4.981-.777-10.697-1.165-17.147-1.165-6.565 0-12.784.705-18.658 2.115-5.874 1.409-11.043 3.61-15.506 6.602-4.463 2.993-7.99 6.805-10.582 11.437-2.591 4.632-3.887 10.17-3.887 16.615 0 8.228 2.375 15.248 7.127 21.06 4.751 5.811 11.963 10.731 21.638 14.759a291.458 291.458 0 0 1 10.625 4.575c3.283 1.496 6.119 3.049 8.509 4.66 2.39 1.611 4.276 3.366 5.658 5.265 1.382 1.899 2.073 4.057 2.073 6.474a9.901 9.901 0 0 1-1.296 4.963c-.863 1.524-2.174 2.848-3.93 3.97-1.756 1.122-3.945 1.999-6.565 2.632-2.62.633-5.687.95-9.2.95-5.989 0-11.92-1.05-17.794-3.151-5.875-2.1-11.317-5.25-16.327-9.451Zm-46.036-68.733H140V109H41v22.742h35.345V233h28.137V131.742Z" fill="#FFF" />
  </symbol>

  <symbol id="tailwind" viewBox="0 0 100 100">
    <path fill="#06b6d4" d="M50 20q-20 0-25 19.994 7.5-9.997 17.5-7.498c3.804.95 6.522 3.71 9.532 6.764 4.902 4.974 10.576 10.731 22.969 10.731q20 0 24.999-19.995-7.5 9.997-17.5 7.5c-3.803-.951-6.521-3.71-9.531-6.765C68.067 25.758 62.392 20 50 20M25 49.991q-20 0-25 19.995 7.5-9.998 17.5-7.498c3.803.952 6.522 3.71 9.532 6.763C31.933 74.225 37.608 79.984 50 79.984q20 0 25-19.995-7.5 9.997-17.5 7.498c-3.803-.95-6.522-3.71-9.532-6.763C43.066 55.75 37.393 49.991 25 49.991" />
  </symbol>

  <symbol id="python" viewBox="0 0 100 100">
    <path fill="#306998" d="M49.866 0c-4.08.02-7.973.367-11.4.974C28.368 2.757 26.537 6.49 26.537 13.376v9.092h23.856v3.03h-32.81c-6.934 0-13.005 4.168-14.904 12.098-2.191 9.086-2.288 14.758 0 24.246 1.695 7.063 5.745 12.095 12.68 12.095h8.203v-10.9c0-7.875 6.812-14.82 14.903-14.82h23.83c6.633 0 11.928-5.463 11.928-12.123V13.377c0-6.466-5.455-11.323-11.928-12.402-4.1-.682-8.352-.993-12.43-.974M36.964 7.314c2.464 0 4.477 2.046 4.477 4.562 0 2.505-2.013 4.53-4.477 4.53-2.473 0-4.476-2.025-4.476-4.53-.001-2.516 2.003-4.562 4.476-4.562" />
    <path fill="#ffe873" d="M77.198 25.498v10.594c0 8.212-6.964 15.125-14.903 15.125h-23.83c-6.527 0-11.928 5.587-11.928 12.124V86.06c0 6.464 5.621 10.268 11.928 12.122 7.551 2.219 14.793 2.621 23.83 0 6.005-1.74 11.927-5.24 11.927-12.122v-9.094H50.394v-3.031h35.758c6.933 0 9.519-4.836 11.93-12.095 2.491-7.473 2.383-14.66 0-24.246-1.714-6.903-4.986-12.097-11.93-12.097zm-13.403 57.53c2.474 0 4.477 2.026 4.477 4.533 0 2.514-2.004 4.56-4.477 4.56-2.464 0-4.476-2.046-4.476-4.56 0-2.507 2.012-4.533 4.476-4.533" />
  </symbol>

  <symbol id="aws" viewBox="0 0 100 100">
    <path fill="currentColor" d="M28.181 41.718c0 1.23.133 2.228.366 2.96.266.732.599 1.53 1.064 2.395.167.266.233.532.233.765 0 .332-.2.665-.632.998l-2.095 1.396c-.3.2-.599.3-.865.3-.332 0-.665-.166-.997-.466a10.3 10.3 0 0 1-1.198-1.563 26 26 0 0 1-1.03-1.962q-3.893 4.59-9.779 4.59c-2.794 0-5.022-.799-6.652-2.395S4.135 45.01 4.135 42.35c0-2.827.998-5.122 3.027-6.851s4.722-2.595 8.148-2.595c1.13 0 2.295.1 3.525.267 1.231.166 2.495.432 3.825.731v-2.428c0-2.527-.532-4.29-1.563-5.321-1.064-1.031-2.86-1.53-5.421-1.53-1.164 0-2.361.133-3.592.432-1.23.3-2.428.666-3.592 1.131a10 10 0 0 1-1.164.433c-.233.066-.4.1-.532.1-.466 0-.699-.333-.699-1.032v-1.63c0-.531.067-.93.233-1.163s.466-.466.931-.699q1.746-.898 4.191-1.497c1.63-.432 3.36-.631 5.188-.631 3.958 0 6.852.898 8.714 2.694 1.83 1.796 2.76 4.523 2.76 8.181v10.776zm-13.503 5.055c1.098 0 2.229-.2 3.426-.598 1.197-.4 2.261-1.131 3.16-2.129.532-.632.93-1.33 1.13-2.128s.333-1.763.333-2.894v-1.397a28 28 0 0 0-3.06-.565 25 25 0 0 0-3.126-.2c-2.229 0-3.858.433-4.956 1.33-1.098.899-1.63 2.163-1.63 3.825 0 1.564.4 2.728 1.23 3.526.8.831 1.963 1.23 3.493 1.23m26.707 3.592c-.599 0-.998-.1-1.264-.332-.266-.2-.499-.665-.698-1.297l-7.816-25.71c-.2-.665-.3-1.097-.3-1.33 0-.532.267-.831.799-.831h3.26c.631 0 1.063.1 1.296.332.266.2.466.666.666 1.297l5.587 22.018 5.188-22.018c.167-.665.366-1.097.632-1.297s.732-.332 1.33-.332h2.661c.632 0 1.065.1 1.33.332.267.2.5.666.633 1.297l5.255 22.284 5.753-22.284c.2-.665.433-1.097.665-1.297.267-.2.699-.332 1.298-.332h3.093c.532 0 .831.266.831.831 0 .166-.033.333-.066.532-.034.2-.1.466-.233.832L63.27 48.769q-.3.998-.699 1.297c-.266.2-.698.333-1.264.333h-2.86c-.632 0-1.064-.1-1.33-.333-.267-.233-.5-.665-.632-1.33L51.33 27.284l-5.122 21.419c-.167.665-.366 1.097-.632 1.33s-.732.332-1.33.332zm42.738.898c-1.73 0-3.46-.2-5.122-.598-1.663-.4-2.96-.832-3.825-1.33-.532-.3-.898-.633-1.03-.932-.134-.3-.2-.632-.2-.931v-1.696c0-.699.266-1.031.765-1.031q.3 0 .598.1c.2.066.5.199.832.332a18 18 0 0 0 3.658 1.164c1.33.266 2.628.4 3.958.4 2.095 0 3.725-.367 4.856-1.098s1.73-1.796 1.73-3.16c0-.931-.3-1.696-.899-2.328-.598-.632-1.73-1.197-3.359-1.73l-4.822-1.496c-2.428-.765-4.224-1.896-5.322-3.393-1.097-1.463-1.663-3.093-1.663-4.822q0-2.096.898-3.692a8.55 8.55 0 0 1 2.395-2.727c.998-.765 2.128-1.33 3.459-1.73S83.757 20 85.22 20c.732 0 1.497.033 2.229.133.765.1 1.463.233 2.162.366.665.166 1.297.332 1.895.532q.899.3 1.397.599c.466.266.798.532.998.831q.3.399.3 1.098v1.563c0 .698-.267 1.064-.766 1.064-.266 0-.698-.133-1.264-.399q-2.843-1.297-6.385-1.297c-1.896 0-3.393.3-4.424.931-1.03.632-1.563 1.597-1.563 2.96 0 .931.333 1.73.998 2.362s1.896 1.264 3.658 1.829l4.723 1.497c2.395.764 4.124 1.829 5.155 3.192s1.53 2.927 1.53 4.657c0 1.43-.3 2.727-.864 3.858-.6 1.13-1.397 2.128-2.428 2.926-1.031.832-2.262 1.43-3.692 1.863-1.497.466-3.06.698-4.756.698" />
    <path fill="#f90" d="M90.409 67.427C79.466 75.51 63.569 79.8 49.899 79.8c-19.157 0-36.418-7.085-49.456-18.858-1.03-.932-.1-2.195 1.131-1.464 14.102 8.182 31.496 13.138 49.49 13.138 12.139 0 25.476-2.528 37.748-7.716 1.83-.832 3.393 1.197 1.597 2.527" />
    <path fill="#f90" d="M94.965 62.239c-1.397-1.796-9.246-.865-12.804-.433-1.065.134-1.231-.798-.267-1.496 6.253-4.39 16.53-3.127 17.727-1.663 1.198 1.497-.332 11.774-6.186 16.696-.898.765-1.762.366-1.363-.632 1.33-3.293 4.29-10.71 2.893-12.472" />
  </symbol>

  <symbol id="git" viewBox="0 0 100 100">
    <path fill="#de4c36" d="M98.114 45.544 54.454 1.886a6.44 6.44 0 0 0-9.108 0l-9.066 9.066 11.5 11.501a7.65 7.65 0 0 1 7.869 1.834 7.66 7.66 0 0 1 1.817 7.916L68.55 43.287c2.682-.923 5.776-.326 7.918 1.82a7.66 7.66 0 0 1 0 10.836 7.662 7.662 0 0 1-12.508-8.335L53.623 37.271v27.202a7.663 7.663 0 0 1 2.026 12.288 7.66 7.66 0 0 1-10.836 0 7.663 7.663 0 0 1 2.508-12.51V36.795a7.6 7.6 0 0 1-2.508-1.672 7.66 7.66 0 0 1-1.651-8.377l-11.338-11.34L1.887 45.344a6.44 6.44 0 0 0 0 9.11l43.661 43.659a6.44 6.44 0 0 0 9.108 0l43.458-43.457a6.444 6.444 0 0 0 0-9.11"/>
  </symbol>

  <symbol id="apple" viewBox="0 0 15 15">
    <path d="M7.87456 2.93707C7.66756 2.93707 7.49956 2.77259 7.49956 2.56993C7.49956 1.1506 8.67554 0 10.1245 0C10.3323 0 10.4995 0.164476 10.4995 0.367133C10.4995 1.78647 9.32429 2.93707 7.87456 2.93707Z" fill="currentColor"/>
    <path d="M13.3498 10.6678C13.4946 10.7743 13.5418 10.9674 13.4601 11.126C12.1401 13.7121 11.0871 15 10.1249 15C9.67713 15 9.23689 14.8583 8.8079 14.5822C8.18316 14.1791 7.37692 14.1622 6.73493 14.5381C6.21518 14.8429 5.72019 15 5.24995 15C3.83472 15 1.5 10.7332 1.5 8.3916C1.5 5.89216 2.83873 3.986 4.87495 3.986C5.83269 3.986 6.65993 4.12405 7.35442 4.40454C7.64916 4.52349 7.98216 4.51468 8.2694 4.37957C8.8334 4.1145 9.57664 3.986 10.4999 3.986C11.6264 3.986 12.6081 4.53524 13.4248 5.60139C13.5486 5.76366 13.5156 5.99349 13.3498 6.11538C12.4386 6.78429 11.9999 7.53618 11.9999 8.3916C11.9999 9.24702 12.4386 9.99891 13.3498 10.6678Z" fill="currentColor"/>
  </symbol>

  
  <symbol id="google" viewBox="0 0 32 32">
    <path d="M23.75,16A7.7446,7.7446,0,0,1,8.7177,18.6259L4.2849,22.1721A13.244,13.244,0,0,0,29.25,16" fill="#00ac47"/>
    <path d="M23.75,16a7.7387,7.7387,0,0,1-3.2516,6.2987l4.3824,3.5059A13.2042,13.2042,0,0,0,29.25,16" fill="#4285f4"/>
    <path d="M8.25,16a7.698,7.698,0,0,1,.4677-2.6259L4.2849,9.8279a13.177,13.177,0,0,0,0,12.3442l4.4328-3.5462A7.698,7.698,0,0,1,8.25,16Z" fill="#ffba00"/>
    <path d="M16,8.25a7.699,7.699,0,0,1,4.558,1.4958l4.06-3.7893A13.2152,13.2152,0,0,0,4.2849,9.8279l4.4328,3.5462A7.756,7.756,0,0,1,16,8.25Z" fill="#ea4435"/>
    <path d="M29.25,15v1L27,19.5H16.5V14H28.25A1,1,0,0,1,29.25,15Z" fill="#4285f4"/>
</symbol>


</svg>
